<?xml version="1.0" standalone="no"?>
<!DOCTYPE svg PUBLIC "-//W3C//DTD SVG 20010904//EN"
 "http://www.w3.org/TR/2001/REC-SVG-20010904/DTD/svg10.dtd">
<svg version="1.0" xmlns="http://www.w3.org/2000/svg"
 width="375.000000pt" height="666.000000pt" viewBox="0 0 375.000000 666.000000"
 preserveAspectRatio="xMidYMid meet">

<g transform="translate(0.000000,666.000000) scale(0.100000,-0.100000)"
fill="#000000" stroke="none">
<path d="M2090 2759 c-132 -23 -288 -127 -363 -243 -54 -83 -130 -265 -135
-323 l-4 -53 -92 6 c-50 3 -111 9 -136 13 -25 4 -59 4 -77 0 -30 -6 -140 -74
-206 -126 -18 -14 -42 -23 -64 -23 -47 0 -149 -50 -200 -98 -25 -23 -49 -60
-64 -97 -22 -56 -24 -72 -22 -218 2 -128 6 -164 20 -191 28 -53 137 -149 222
-193 1 -1 -4 -12 -13 -25 -9 -12 -15 -38 -15 -58 1 -34 2 -34 8 8 4 23 15 50
25 60 17 16 19 15 48 -18 31 -36 137 -174 152 -198 7 -12 -1 -13 -45 -7 -62 8
-82 17 -124 54 l-30 26 28 -31 c15 -16 27 -34 27 -40 0 -5 -32 -45 -71 -89
-38 -44 -75 -89 -81 -100 -13 -24 -19 -30 82 85 48 54 90 94 99 93 123 -18
146 -25 183 -58 21 -19 43 -35 48 -35 11 0 6 -55 -12 -124 -7 -29 -17 -41 -39
-49 -16 -6 -28 -16 -26 -22 3 -9 156 -78 317 -141 36 -15 106 -46 157 -69 51
-24 145 -60 210 -81 100 -31 142 -39 278 -49 210 -16 297 -44 368 -118 32 -34
47 -58 46 -76 0 -24 -1 -24 -12 -7 -32 49 -53 69 -99 92 -27 14 -52 23 -55 20
-3 -2 21 -18 54 -34 53 -27 61 -36 81 -85 18 -43 21 -62 15 -88 -11 -42 -33
-50 -33 -12 0 15 -11 51 -24 80 -21 43 -33 56 -76 78 -29 15 -54 24 -57 21 -3
-2 18 -16 46 -30 58 -30 93 -85 95 -148 1 -34 3 -38 28 -38 19 0 29 6 34 23
13 42 105 227 112 227 22 0 88 -138 107 -224 3 -15 9 -26 12 -23 13 13 -22
117 -63 190 -25 43 -42 82 -38 88 3 6 -6 24 -22 40 -46 48 -19 44 42 -5 31
-26 59 -44 62 -42 2 3 -10 18 -29 33 -62 53 -81 78 -123 168 -24 50 -54 104
-68 120 -33 41 -72 135 -60 147 14 14 62 12 122 -5 68 -21 99 -40 54 -33 -53
7 -58 -6 -27 -57 15 -26 32 -47 36 -47 5 0 -3 20 -17 45 l-27 45 38 0 c21 0
57 -9 81 -20 29 -13 42 -15 40 -7 -7 20 -127 76 -206 95 l-73 19 38 46 c21 25
71 74 111 108 40 34 70 64 68 67 -10 9 -159 -125 -206 -186 l-49 -63 -19 45
c-35 79 -35 83 -2 141 64 111 157 213 248 272 95 62 157 92 186 93 11 0 37
-19 60 -42 26 -27 34 -33 23 -16 -11 18 -17 47 -17 87 0 33 -4 63 -10 66 -15
9 -12 31 6 49 8 9 14 26 11 38 -3 21 -5 20 -16 -9 -16 -41 -24 -41 -50 -4 -32
45 -36 82 -13 126 l19 39 16 -30 c12 -21 16 -24 17 -11 0 10 -5 27 -11 38 -7
15 -5 41 12 107 15 59 20 103 16 138 -5 52 -24 101 -34 90 -3 -3 -1 -11 4 -18
6 -7 14 -33 17 -58 6 -40 4 -38 -18 25 -27 74 -32 100 -16 75 5 -8 10 -10 10
-4 0 5 -7 19 -15 30 -8 10 -15 27 -15 37 0 10 -4 16 -9 13 -13 -9 -38 65 -46
140 -5 41 -66 206 -95 257 -67 119 -196 230 -304 263 -48 14 -133 27 -256 38
-30 3 -80 0 -110 -5z m228 -233 c10 -13 36 -32 58 -41 48 -20 116 -84 158
-150 52 -81 53 -86 4 -69 -92 32 -195 27 -195 -10 0 -18 7 -19 63 -6 27 6 62
6 100 -1 32 -6 65 -11 72 -11 7 -1 21 -30 32 -66 35 -113 21 -271 -30 -352
-52 -81 -61 -90 -110 -115 -27 -14 -51 -29 -54 -34 -4 -5 -21 -5 -43 0 -21 5
-94 12 -163 16 l-125 6 -33 -38 -33 -37 -37 29 c-31 25 -38 38 -43 79 -11 83
-28 130 -70 193 -32 48 -43 76 -51 130 l-10 68 44 47 c47 51 94 69 155 59 24
-4 38 -14 49 -34 15 -30 60 -66 70 -56 3 3 -4 10 -15 16 -23 13 -64 88 -55
102 3 5 0 9 -7 9 -19 0 -5 119 20 168 12 24 32 47 44 51 30 12 31 8 12 -29
-22 -43 -22 -127 0 -173 25 -53 79 -97 118 -97 29 1 30 2 12 12 -66 36 -107
100 -108 167 -1 78 19 119 68 142 24 12 49 27 56 35 16 20 25 18 47 -10z
m-277 -113 c-8 -15 -10 -15 -11 -2 0 17 10 32 18 25 2 -3 -1 -13 -7 -23z m-18
-100 c-5 -48 -8 -53 -29 -53 -13 0 -24 3 -24 6 0 7 54 104 56 101 1 -1 -1 -26
-3 -54z m-53 -13 c-6 -11 -13 -20 -16 -20 -2 0 0 9 6 20 6 11 13 20 16 20 2 0
0 -9 -6 -20z m763 -188 c9 -10 20 -34 23 -53 l7 -34 -29 26 c-16 15 -42 29
-58 33 -27 7 -28 8 -11 26 23 25 47 25 68 2z m-973 -22 c-8 -5 -22 -10 -30
-10 -13 0 -13 1 0 10 8 5 22 10 30 10 13 0 13 -1 0 -10z m50 -80 c0 -12 -3
-12 -16 2 -9 9 -13 21 -9 28 9 14 25 -5 25 -30z m910 1 c29 -24 32 -29 21 -50
-14 -25 -68 -61 -93 -61 -13 0 -16 6 -13 28 2 15 7 48 10 73 7 54 20 56 75 10z
m-73 -198 c15 -65 -10 -168 -55 -220 -20 -25 -46 -58 -57 -74 -31 -44 -75 -57
-207 -60 -84 -1 -86 -2 -91 -27 -14 -72 41 -267 106 -377 54 -92 197 -419 219
-500 12 -46 13 -47 19 -19 5 27 9 22 50 -64 l46 -92 -77 -45 c-42 -25 -83 -45
-91 -45 -13 0 -145 45 -212 72 -21 8 -39 32 -72 98 -52 104 -63 140 -114 385
-58 274 -101 545 -101 630 0 86 23 150 66 185 27 21 35 22 126 16 54 -3 119
-11 147 -17 46 -10 53 -8 107 21 70 37 98 62 114 101 14 34 26 37 33 9 8 -32
-10 -81 -48 -129 -40 -50 -40 -68 0 -25 44 48 68 111 62 159 -6 41 -2 55 14
55 4 0 11 -17 16 -37z m-1122 -203 c11 -9 30 -23 43 -29 12 -6 22 -16 22 -22
0 -14 -113 48 -141 77 l-23 25 39 -17 c22 -9 49 -24 60 -34z m14 -50 c6 0 11
-4 11 -10 0 -21 -27 -8 -75 35 l-50 46 51 -36 c28 -19 56 -35 63 -35z m479 44
c1 0 -4 -15 -11 -33 -16 -39 -27 -30 -27 22 0 36 2 38 18 26 9 -7 18 -14 20
-15z m-80 -34 c37 -23 52 -54 52 -111 0 -42 -37 -125 -69 -156 -13 -13 -21
-43 -29 -115 -12 -114 -32 -162 -96 -240 -85 -104 -207 -145 -341 -114 -173
41 -274 127 -384 328 l-42 76 22 41 c16 31 35 49 72 67 49 26 77 27 135 9 24
-8 24 -7 9 21 -8 16 -27 40 -42 54 -26 25 -71 108 -62 116 3 3 14 -11 26 -30
45 -72 152 -141 203 -129 12 3 34 18 48 33 34 38 96 80 120 80 10 0 20 6 22
13 3 8 31 12 85 13 44 1 89 5 101 8 18 6 26 -2 53 -48 38 -68 54 -73 43 -13
-10 56 -9 84 6 102 16 20 29 19 68 -5z m512 -157 c0 -21 3 -47 5 -58 4 -16
-11 -32 -71 -77 -42 -32 -83 -58 -90 -58 -17 0 -33 58 -41 147 l-6 72 39 4
c21 2 67 4 102 5 l62 2 0 -37z m470 -71 c0 -8 -6 -12 -12 -10 -7 3 -14 22 -15
44 l-2 39 14 -30 c8 -16 14 -36 15 -43z m-907 -34 c6 -41 2 -45 -26 -24 -16
12 -16 18 -5 61 14 50 17 45 31 -37z m638 15 c-50 -70 -283 -276 -295 -262 -2
2 -8 13 -14 24 -8 17 -3 25 36 55 26 19 87 74 137 122 76 74 95 88 123 88 l33
0 -20 -27z m172 7 c4 -4 -9 -18 -30 -32 -21 -15 -59 -47 -85 -72 -26 -25 -50
-46 -53 -46 -6 0 25 56 72 132 21 34 26 37 55 31 18 -3 37 -9 41 -13z m-811
-215 c29 -24 39 -40 44 -75 l7 -45 -59 52 c-96 83 -105 95 -98 131 l6 31 32
-32 c17 -18 48 -46 68 -62z m-77 -137 c29 -29 78 -73 108 -98 36 -29 57 -55
61 -74 3 -16 5 -30 4 -32 -7 -6 -238 228 -238 241 0 23 7 19 65 -37z m-75
-101 l0 -113 -30 -22 c-17 -13 -48 -45 -70 -73 -36 -46 -49 -77 -65 -151 -5
-26 -6 -26 -35 -14 -20 8 -38 28 -53 57 -22 45 -72 99 -168 182 -30 26 -62 60
-72 76 l-16 28 67 -19 c37 -11 96 -19 131 -19 90 -1 199 54 256 128 22 28 43
52 48 52 4 1 7 -50 7 -112z m602 53 c-17 -31 -32 -39 -32 -18 0 13 29 48 41
48 4 0 0 -13 -9 -30z m-463 -135 c133 -124 141 -133 141 -153 0 -19 -2 -19
-54 -3 -51 15 -57 20 -91 78 -20 34 -45 80 -56 102 -10 21 -30 48 -44 59 -14
11 -25 23 -25 28 0 8 21 -10 129 -111z m-99 30 c0 -13 -4 -26 -9 -29 -10 -6
-20 33 -13 52 6 19 22 3 22 -23z m-532 -30 c20 -27 65 -72 100 -100 56 -45
138 -143 128 -152 -2 -3 -27 5 -55 18 -35 15 -51 27 -51 40 0 11 7 19 15 19 8
0 15 5 15 11 0 26 -43 -3 -56 -39 -1 -2 -192 76 -207 85 -5 3 1 16 13 28 14
15 24 41 27 72 9 91 15 92 71 18z m646 -215 c-9 -25 -27 -64 -41 -88 -21 -37
-27 -41 -40 -30 -18 14 -68 90 -66 99 1 3 -9 18 -22 35 -18 22 -26 26 -35 18
-15 -15 0 -44 36 -73 21 -16 24 -26 19 -48 -3 -15 -12 -36 -20 -46 -13 -18
-16 -18 -75 9 l-62 28 6 43 c3 24 15 61 26 84 19 36 44 63 155 167 l29 28 54
-90 53 -90 -17 -46z m72 35 c3 -8 -17 -63 -44 -122 -45 -97 -52 -108 -73 -105
-13 2 -26 6 -28 7 -2 2 13 31 33 63 20 33 43 79 51 103 9 24 17 50 20 57 6 17
34 15 41 -3z m82 -67 c10 -28 8 -40 -21 -107 -29 -67 -36 -76 -57 -73 -13 1
-25 4 -27 5 -5 5 79 207 86 207 4 0 12 -14 19 -32z m60 -123 c18 -36 32 -67
32 -70 0 -5 -122 6 -129 11 -2 2 3 14 11 26 8 13 20 40 27 61 7 20 16 37 20
37 4 0 21 -29 39 -65z m-298 -2 c0 -14 -38 -17 -58 -4 -10 6 -11 13 -1 35 l12
26 24 -22 c13 -12 23 -27 23 -35z m770 -129 c0 -9 -9 -29 -20 -44 -11 -16 -33
-57 -49 -92 l-28 -63 -4 53 c-4 48 0 60 31 108 34 52 70 72 70 38z m-146 -19
c-6 -16 -24 -21 -24 -7 0 11 11 22 21 22 5 0 6 -7 3 -15z"/>
<path d="M2390 2158 c-52 -14 -67 -32 -68 -82 -2 -36 2 -48 20 -60 12 -9 30
-16 39 -16 40 0 66 74 35 99 -8 7 -29 13 -47 13 -30 1 -31 2 -13 15 28 21 112
12 160 -18 37 -23 70 -26 87 -9 5 4 -5 11 -23 15 -23 5 -30 11 -26 22 5 11 2
13 -9 9 -9 -3 -18 0 -21 7 -6 15 -87 19 -134 5z m-20 -112 c0 -11 -19 -15 -25
-6 -3 5 1 10 9 10 9 0 16 -2 16 -4z"/>
<path d="M1936 2145 c-4 -12 -14 -16 -31 -13 -14 3 -25 2 -25 -3 0 -4 -14 -11
-32 -14 -30 -7 -31 -8 -13 -21 24 -18 50 -18 79 1 12 8 43 18 69 21 37 5 53 2
82 -15 22 -13 35 -16 33 -9 -6 19 -68 47 -103 48 -17 0 -36 5 -42 11 -7 7 -12
5 -17 -6z"/>
<path d="M1932 2088 c-28 -28 3 -98 43 -98 18 0 55 35 55 53 0 7 -7 23 -16 35
-17 24 -62 30 -82 10z m38 -58 c0 -5 -4 -10 -10 -10 -5 0 -10 5 -10 10 0 6 5
10 10 10 6 0 10 -4 10 -10z"/>
<path d="M2497 2043 c-10 -10 -8 -23 4 -23 5 0 7 5 3 11 -4 8 1 9 16 4 15 -5
20 -4 16 4 -8 12 -29 15 -39 4z"/>
<path d="M1880 2020 c-8 -5 -12 -11 -9 -14 2 -3 11 -1 19 4 8 5 12 11 9 14 -2
3 -11 1 -19 -4z"/>
<path d="M1890 1989 c0 -5 5 -7 10 -4 6 3 10 8 10 11 0 2 -4 4 -10 4 -5 0 -10
-5 -10 -11z"/>
<path d="M2145 1795 c88 -17 116 -17 50 0 -27 7 -66 13 -85 13 -22 0 -10 -5
35 -13z"/>
<path d="M2270 1800 l-25 -8 25 -1 c14 0 32 4 40 9 13 9 13 10 0 9 -8 -1 -26
-5 -40 -9z"/>
<path d="M1590 1491 c-17 -8 -29 -20 -26 -27 2 -6 -1 -17 -7 -23 -19 -19 2
-12 34 11 23 17 44 23 92 23 59 0 87 8 87 23 0 14 -148 8 -180 -7z"/>
<path d="M1608 1446 c-29 -15 -34 -40 -14 -71 19 -29 57 -33 80 -9 19 18 19
24 7 57 -11 29 -41 39 -73 23z m27 -66 c3 -5 1 -10 -4 -10 -6 0 -11 5 -11 10
0 6 2 10 4 10 3 0 8 -4 11 -10z"/>
<path d="M1184 1331 c-33 -20 -52 -41 -37 -41 5 0 14 5 21 12 7 7 12 9 12 6 0
-3 -22 -23 -50 -44 -54 -41 -61 -54 -30 -54 11 0 20 6 20 14 0 28 81 80 134
87 50 6 50 6 19 14 -18 4 -33 11 -33 16 0 14 -23 10 -56 -10z m36 -5 c0 -2 -7
-7 -16 -10 -8 -3 -12 -2 -9 4 6 10 25 14 25 6z"/>
<path d="M1210 1281 c-15 -28 -12 -46 8 -64 22 -20 42 -21 66 -4 22 16 25 65
5 78 -25 16 -68 10 -79 -10z m50 -51 c0 -5 -4 -10 -10 -10 -5 0 -10 5 -10 10
0 6 5 10 10 10 6 0 10 -4 10 -10z"/>
<path d="M1601 1086 c-13 -7 -20 -15 -15 -18 5 -3 23 3 39 13 34 21 13 25 -24
5z"/>
<path d="M1496 1040 c-27 -10 -43 -20 -37 -24 11 -7 101 28 101 38 0 8 -6 6
-64 -14z"/>
<path d="M2968 1543 c5 -21 7 -23 10 -9 2 10 0 22 -6 28 -6 6 -7 0 -4 -19z"/>
<path d="M960 718 c-34 -9 -95 -57 -85 -66 2 -2 18 7 35 22 18 14 43 29 56 32
29 7 177 -1 214 -12 17 -4 22 -3 15 4 -26 27 -168 39 -235 20z"/>
<path d="M3031 704 c0 -11 3 -14 6 -6 3 7 2 16 -1 19 -3 4 -6 -2 -5 -13z"/>
<path d="M851 615 c-34 -89 -34 -89 -42 -69 -6 16 -8 15 -8 -8 -1 -15 -5 -38
-11 -52 -5 -15 -6 -26 -1 -26 5 0 12 -13 16 -30 4 -16 18 -39 32 -50 34 -27
115 -50 175 -50 26 0 96 -7 155 -16 l108 -15 150 -150 c83 -82 155 -149 161
-149 7 0 -54 65 -135 145 -142 140 -145 145 -113 145 27 0 45 -12 115 -83 45
-46 114 -112 153 -146 72 -62 72 -62 128 -59 l56 3 -103 87 c-56 48 -122 108
-147 134 l-45 47 34 -7 c19 -3 58 -24 85 -46 135 -107 156 -121 165 -116 5 3
23 31 40 61 31 55 43 63 71 45 12 -7 6 -25 -33 -103 -26 -53 -47 -98 -47 -101
0 -3 16 -6 35 -6 32 0 37 4 74 73 59 106 52 100 83 75 l27 -23 -36 -58 c-20
-31 -34 -60 -30 -63 3 -3 21 21 40 53 19 32 40 57 48 56 8 -1 46 -14 84 -27
52 -19 90 -26 148 -26 75 0 79 -1 108 -32 34 -38 39 -26 6 16 -22 27 -28 29
-113 32 -124 5 -212 36 -314 114 -44 34 -136 55 -315 75 -77 9 -237 29 -355
45 -118 16 -251 32 -294 35 -180 14 -223 67 -166 205 17 41 29 79 26 84 -2 6
-9 -2 -15 -19z m817 -383 c6 -9 12 -22 12 -30 0 -16 -10 -10 -60 36 l-25 23
30 -7 c17 -3 36 -13 43 -22z m104 2 c4 -3 -1 -25 -9 -50 -13 -38 -17 -42 -34
-34 -14 8 -19 22 -19 50 0 37 2 40 28 40 16 0 31 -3 34 -6z m58 -10 c0 -4 -12
-29 -27 -57 -22 -40 -29 -46 -31 -30 -4 30 24 93 42 93 9 0 16 -3 16 -6z"/>
<path d="M811 614 c0 -11 3 -14 6 -6 3 7 2 16 -1 19 -3 4 -6 -2 -5 -13z"/>
<path d="M3007 573 c-4 -3 -7 -11 -7 -17 0 -6 5 -5 12 2 6 6 9 14 7 17 -3 3
-9 2 -12 -2z"/>
<path d="M3012 500 c0 -14 2 -19 5 -12 2 6 2 18 0 25 -3 6 -5 1 -5 -13z"/>
<path d="M731 401 c-41 -49 -41 -50 -19 -57 42 -13 202 -106 263 -153 33 -25
95 -79 138 -120 42 -41 80 -72 82 -69 3 3 -34 43 -82 89 -93 90 -250 200 -346
244 l-58 27 36 44 c20 24 34 44 32 44 -3 0 -24 -22 -46 -49z"/>
<path d="M2970 447 c0 -10 68 -117 75 -117 5 0 -15 49 -27 65 -33 43 -47 59
-48 52z"/>
<path d="M656 311 c-24 -27 -20 -35 29 -59 76 -37 216 -134 281 -194 54 -51
66 -58 103 -58 22 0 41 3 41 6 0 15 -88 102 -150 150 -80 61 -201 137 -251
158 -34 14 -38 14 -53 -3z"/>
<path d="M619 212 c10 -7 10 -14 2 -30 -6 -11 -11 -29 -11 -39 0 -12 5 -9 16
12 8 17 19 34 23 38 18 18 138 -48 254 -141 38 -30 71 -52 74 -49 9 9 -143
123 -221 166 -42 23 -93 45 -113 47 -26 4 -34 3 -24 -4z"/>
<path d="M2320 162 c0 -4 27 -19 60 -34 55 -24 63 -32 85 -80 13 -29 24 -46
24 -37 1 15 -36 109 -43 109 -1 0 -30 11 -64 24 -34 14 -62 21 -62 18z"/>
<path d="M2987 60 c-26 -21 -57 -42 -68 -45 -11 -4 -18 -9 -15 -12 8 -8 87 41
115 71 34 36 24 32 -32 -14z"/>
<path d="M582 20 c0 -14 2 -19 5 -12 2 6 2 18 0 25 -3 6 -5 1 -5 -13z"/>
</g>
</svg>
